<mxfile host="65bd71144e">
    <diagram id="J2yq-C89FXUGNsSaLX4E" name="Страница 1">
        <mxGraphModel dx="461" dy="262" grid="1" gridSize="10" guides="1" tooltips="1" connect="1" arrows="1" fold="1" page="1" pageScale="1" pageWidth="1169" pageHeight="827" math="1" shadow="0">
            <root>
                <mxCell id="0"/>
                <mxCell id="1" parent="0"/>
                <mxCell id="5" value="VSM-карта процесса формирования отчетности о продажах (&quot;ДО&quot; реализации проекта в минутах):" style="rounded=0;whiteSpace=wrap;verticalAlign=middle;align=center;fontSize=12;" parent="1" vertex="1">
                    <mxGeometry x="280" y="40" width="600" height="40" as="geometry"/>
                </mxCell>
                <mxCell id="160" value="Запись продаж на буиаге или в файле Excel" style="strokeWidth=2;shape=mxgraph.lean_mapping.manufacturing_process;fontSize=12;verticalAlign=middle;align=center;whiteSpace=wrap;" parent="1" vertex="1">
                    <mxGeometry x="40" y="120" width="120" height="120" as="geometry"/>
                </mxCell>
                <mxCell id="161" value="BVA" style="text;fontSize=12;spacingLeft=2;verticalAlign=middle;align=center;spacingTop=-5;resizeWidth=1;whiteSpace=wrap;" parent="160" vertex="1">
                    <mxGeometry width="120" height="22.285714285714285" as="geometry"/>
                </mxCell>
                <mxCell id="162" value="Телефон" style="shape=mxgraph.lean_mapping.electronic_info_flow_edge;exitX=1;exitY=0.833;exitDx=0;exitDy=0;exitPerimeter=0;entryX=0;entryY=0.5;entryDx=0;entryDy=0;fontSize=12;verticalAlign=middle;align=center;" parent="1" source="160" target="164" edge="1">
                    <mxGeometry width="100" height="100" relative="1" as="geometry">
                        <mxPoint x="200" y="234" as="sourcePoint"/>
                        <mxPoint x="280" y="130" as="targetPoint"/>
                    </mxGeometry>
                </mxCell>
                <mxCell id="163" value="Передача заведующему отделу" style="strokeWidth=2;shape=mxgraph.lean_mapping.manufacturing_process;fontSize=12;verticalAlign=middle;align=center;whiteSpace=wrap;" parent="1" vertex="1">
                    <mxGeometry x="200" y="120" width="120" height="120" as="geometry"/>
                </mxCell>
                <mxCell id="164" value="NVA" style="text;fontSize=12;spacingLeft=2;verticalAlign=middle;align=center;spacingTop=-5;resizeWidth=1;whiteSpace=wrap;" parent="163" vertex="1">
                    <mxGeometry width="120" height="22.285714285714285" as="geometry"/>
                </mxCell>
                <mxCell id="165" value="Уточнение у сотрудников, напоминание, исправления" style="strokeWidth=2;shape=mxgraph.lean_mapping.manufacturing_process;fontSize=12;verticalAlign=middle;align=center;whiteSpace=wrap;" parent="1" vertex="1">
                    <mxGeometry x="360" y="120" width="120" height="120" as="geometry"/>
                </mxCell>
                <mxCell id="166" value="NVA" style="text;fontSize=12;spacingLeft=2;verticalAlign=middle;align=center;spacingTop=-5;resizeWidth=1;whiteSpace=wrap;" parent="165" vertex="1">
                    <mxGeometry width="120" height="22.285714285714285" as="geometry"/>
                </mxCell>
                <mxCell id="167" value="Формирование сводного отчета по отделу в Excel" style="strokeWidth=2;shape=mxgraph.lean_mapping.manufacturing_process;fontSize=12;verticalAlign=middle;align=center;whiteSpace=wrap;" parent="1" vertex="1">
                    <mxGeometry x="520" y="120" width="120" height="120" as="geometry"/>
                </mxCell>
                <mxCell id="168" value="NVA" style="text;fontSize=12;spacingLeft=2;verticalAlign=middle;align=center;spacingTop=-5;resizeWidth=1;whiteSpace=wrap;" parent="167" vertex="1">
                    <mxGeometry width="120" height="22.285714285714285" as="geometry"/>
                </mxCell>
                <mxCell id="169" value="" style="edgeStyle=none;fontFamily=Helvetica;fontSize=12;verticalAlign=middle;align=center;" parent="1" source="170" target="173" edge="1">
                    <mxGeometry relative="1" as="geometry"/>
                </mxCell>
                <mxCell id="170" value="Передача сводного отчета по отделу в главный отдел" style="strokeWidth=2;shape=mxgraph.lean_mapping.manufacturing_process;fontSize=12;verticalAlign=middle;align=center;whiteSpace=wrap;" parent="1" vertex="1">
                    <mxGeometry x="680" y="120" width="120" height="120" as="geometry"/>
                </mxCell>
                <mxCell id="171" value="BVA" style="text;fontSize=12;spacingLeft=2;verticalAlign=middle;align=center;spacingTop=-5;resizeWidth=1;whiteSpace=wrap;" parent="170" vertex="1">
                    <mxGeometry width="120" height="22.285714285714285" as="geometry"/>
                </mxCell>
                <mxCell id="172" value="" style="edgeStyle=none;fontFamily=Helvetica;fontSize=12;verticalAlign=middle;align=center;" parent="1" source="173" target="175" edge="1">
                    <mxGeometry relative="1" as="geometry"/>
                </mxCell>
                <mxCell id="173" value="Формирование сводного отчета по всему отделению" style="strokeWidth=2;shape=mxgraph.lean_mapping.manufacturing_process;fontSize=12;verticalAlign=middle;align=center;whiteSpace=wrap;" parent="1" vertex="1">
                    <mxGeometry x="840" y="120" width="120" height="120" as="geometry"/>
                </mxCell>
                <mxCell id="174" value="CVA" style="text;fontSize=12;spacingLeft=2;verticalAlign=middle;align=center;spacingTop=-5;resizeWidth=1;whiteSpace=wrap;" parent="173" vertex="1">
                    <mxGeometry width="120" height="22.285714285714285" as="geometry"/>
                </mxCell>
                <mxCell id="175" value="Предоставление результатов руководству" style="strokeWidth=2;shape=mxgraph.lean_mapping.manufacturing_process;fontSize=12;verticalAlign=middle;align=center;whiteSpace=wrap;" parent="1" vertex="1">
                    <mxGeometry x="1000" y="120" width="120" height="120" as="geometry"/>
                </mxCell>
                <mxCell id="176" value="BVA" style="text;fontSize=12;spacingLeft=2;verticalAlign=middle;align=center;spacingTop=-5;resizeWidth=1;whiteSpace=wrap;" parent="175" vertex="1">
                    <mxGeometry width="120" height="22.285714285714285" as="geometry"/>
                </mxCell>
                <mxCell id="177" value="Общее время: t = 79 минут;&#10;CVA — client-value added — действие, добавляющее ценность для клиента (обработка, сборка, оказание услуги, выполнение требуемой работы) - 30 минут;&#10;BVA — business-value added — действие, добавляющее ценность для бизнеса (сбор данных для управления деятельностью и формирования отчетов) - 16 минут;&#10;NVA — non-value added — действие, НЕ добавляющее никакой ценности - 33 минут." style="rounded=1;whiteSpace=wrap;fontSize=15;align=center;verticalAlign=middle;" parent="1" vertex="1">
                    <mxGeometry x="240" y="360" width="680" height="120" as="geometry"/>
                </mxCell>
                <mxCell id="178" value="Email" style="shape=mxgraph.lean_mapping.electronic_info_flow_edge;exitX=1;exitY=0.833;exitDx=0;exitDy=0;exitPerimeter=0;entryX=0;entryY=0.5;entryDx=0;entryDy=0;fontSize=12;verticalAlign=middle;align=center;" parent="1" edge="1">
                    <mxGeometry width="100" height="100" relative="1" as="geometry">
                        <mxPoint x="320" y="222.82000000000016" as="sourcePoint"/>
                        <mxPoint x="360" y="134.002857142857" as="targetPoint"/>
                    </mxGeometry>
                </mxCell>
                <mxCell id="179" value="Email" style="shape=mxgraph.lean_mapping.electronic_info_flow_edge;exitX=1;exitY=0.833;exitDx=0;exitDy=0;exitPerimeter=0;entryX=0;entryY=0.5;entryDx=0;entryDy=0;fontSize=12;verticalAlign=middle;align=center;" parent="1" edge="1">
                    <mxGeometry width="100" height="100" relative="1" as="geometry">
                        <mxPoint x="480" y="224.41000000000008" as="sourcePoint"/>
                        <mxPoint x="520" y="135.59285714285716" as="targetPoint"/>
                    </mxGeometry>
                </mxCell>
                <mxCell id="180" value="Email" style="shape=mxgraph.lean_mapping.electronic_info_flow_edge;exitX=1;exitY=0.833;exitDx=0;exitDy=0;exitPerimeter=0;entryX=0;entryY=0.5;entryDx=0;entryDy=0;fontSize=12;verticalAlign=middle;align=center;" parent="1" edge="1">
                    <mxGeometry width="100" height="100" relative="1" as="geometry">
                        <mxPoint x="640" y="222.82000000000016" as="sourcePoint"/>
                        <mxPoint x="680" y="134.002857142857" as="targetPoint"/>
                    </mxGeometry>
                </mxCell>
                <mxCell id="181" value="10" style="shape=partialRectangle;whiteSpace=wrap;bottom=0;right=0;fillColor=none;verticalAlign=middle;align=center;fontSize=12;" parent="1" vertex="1">
                    <mxGeometry x="40" y="280" width="120" height="40" as="geometry"/>
                </mxCell>
                <mxCell id="182" value="" style="shape=partialRectangle;whiteSpace=wrap;bottom=1;right=1;left=1;top=0;fillColor=none;routingCenterX=-0.5;verticalAlign=middle;align=center;fontSize=12;" parent="1" vertex="1">
                    <mxGeometry x="160" y="280" width="40" height="40" as="geometry"/>
                </mxCell>
                <mxCell id="183" value="3" style="shape=partialRectangle;whiteSpace=wrap;bottom=0;right=0;fillColor=none;verticalAlign=middle;align=center;fontSize=12;" parent="1" vertex="1">
                    <mxGeometry x="200" y="280" width="120" height="40" as="geometry"/>
                </mxCell>
                <mxCell id="184" value="" style="shape=partialRectangle;whiteSpace=wrap;bottom=1;right=1;left=1;top=0;fillColor=none;routingCenterX=-0.5;verticalAlign=middle;align=center;fontSize=12;" parent="1" vertex="1">
                    <mxGeometry x="320" y="280" width="40" height="40" as="geometry"/>
                </mxCell>
                <mxCell id="185" value="5" style="shape=partialRectangle;whiteSpace=wrap;bottom=0;right=0;fillColor=none;verticalAlign=middle;align=center;fontSize=12;" parent="1" vertex="1">
                    <mxGeometry x="360" y="280" width="120" height="40" as="geometry"/>
                </mxCell>
                <mxCell id="186" value="" style="shape=partialRectangle;whiteSpace=wrap;bottom=1;right=1;left=1;top=0;fillColor=none;routingCenterX=-0.5;verticalAlign=middle;align=center;fontSize=12;" parent="1" vertex="1">
                    <mxGeometry x="480" y="280" width="40" height="40" as="geometry"/>
                </mxCell>
                <mxCell id="187" value="25" style="shape=partialRectangle;whiteSpace=wrap;bottom=0;right=0;fillColor=none;verticalAlign=middle;align=center;fontSize=12;" parent="1" vertex="1">
                    <mxGeometry x="520" y="280" width="120" height="40" as="geometry"/>
                </mxCell>
                <mxCell id="188" value="" style="shape=partialRectangle;whiteSpace=wrap;bottom=1;right=1;left=1;top=0;fillColor=none;routingCenterX=-0.5;verticalAlign=middle;align=center;fontSize=12;" parent="1" vertex="1">
                    <mxGeometry x="640" y="280" width="40" height="40" as="geometry"/>
                </mxCell>
                <mxCell id="189" value="3" style="shape=partialRectangle;whiteSpace=wrap;bottom=0;right=0;fillColor=none;verticalAlign=middle;align=center;fontSize=12;" parent="1" vertex="1">
                    <mxGeometry x="680" y="280" width="120" height="40" as="geometry"/>
                </mxCell>
                <mxCell id="190" value="" style="shape=partialRectangle;whiteSpace=wrap;bottom=1;right=1;left=1;top=0;fillColor=none;routingCenterX=-0.5;verticalAlign=middle;align=center;fontSize=12;" parent="1" vertex="1">
                    <mxGeometry x="800" y="280" width="40" height="40" as="geometry"/>
                </mxCell>
                <mxCell id="191" value="30" style="shape=partialRectangle;whiteSpace=wrap;bottom=0;right=0;fillColor=none;verticalAlign=middle;align=center;fontSize=12;" parent="1" vertex="1">
                    <mxGeometry x="840" y="280" width="120" height="40" as="geometry"/>
                </mxCell>
                <mxCell id="192" value="" style="shape=partialRectangle;whiteSpace=wrap;bottom=1;right=1;left=1;top=0;fillColor=none;routingCenterX=-0.5;verticalAlign=middle;align=center;fontSize=12;" parent="1" vertex="1">
                    <mxGeometry x="960" y="280" width="40" height="40" as="geometry"/>
                </mxCell>
                <mxCell id="193" value="" style="shape=partialRectangle;whiteSpace=wrap;bottom=0;right=0;fillColor=none;verticalAlign=middle;align=center;fontSize=12;" parent="1" vertex="1">
                    <mxGeometry x="1000" y="280" width="120" height="40" as="geometry"/>
                </mxCell>
                <mxCell id="194" value="3" style="shape=partialRectangle;whiteSpace=wrap;bottom=0;top=0;fillColor=none;verticalAlign=middle;align=center;fontSize=12;" parent="1" vertex="1">
                    <mxGeometry x="1000" y="280" width="120" height="40" as="geometry"/>
                </mxCell>
                <mxCell id="195" value="Уточнения/Исправления" style="edgeStyle=segmentEdgeStyle;endArrow=classic;html=1;entryX=0.33;entryY=1.021;entryDx=0;entryDy=0;entryPerimeter=0;exitX=0.667;exitY=1.021;exitDx=0;exitDy=0;exitPerimeter=0;fontSize=12;" edge="1" parent="1" source="165" target="163">
                    <mxGeometry width="50" height="50" relative="1" as="geometry">
                        <mxPoint x="440" y="260" as="sourcePoint"/>
                        <mxPoint x="460" y="260" as="targetPoint"/>
                        <Array as="points">
                            <mxPoint x="440" y="260"/>
                            <mxPoint x="240" y="260"/>
                        </Array>
                    </mxGeometry>
                </mxCell>
            </root>
        </mxGraphModel>
    </diagram>
</mxfile>